<svg width="520" height="149" viewBox="0 0 520 149" fill="none" xmlns="http://www.w3.org/2000/svg">
<path fill-rule="evenodd" clip-rule="evenodd" 
d="
M517.989 148.769
L496.026 138.181
C475.064 127.6 432.147 105.39 389.206 86.3059
C346.265 67.2219 303.309 50.2222 259.225 49.8897
C216.143 49.5647 172.934 65.9144 129.876 62.4629
C86.8093 60.0536 43.8921 37.8431 22.9305 27.2627
L0.974956 15.6325
L1.09288 2.87883e-05
L23.1349 0.166299
C44.1751 0.325012 87.2574 0.649996 130.34 0.97498
C173.422 1.29996 216.504 1.62495 259.586 1.94993
C303.671 2.28247 346.753 2.60746 389.835 2.93244
C432.917 3.25742 476 3.58241 497.04 3.74112
L519.082 3.90739
L517.989 148.769Z" 
fill="#F9AF2B"/>
</svg>
